<?xml version="1.0" encoding="UTF-8"?>
<svg id="svg2" xmlns="http://www.w3.org/2000/svg" version="1.1" viewBox="0 0 375.75 623.71">
  <!-- Generator: Adobe Illustrator 30.1.0, SVG Export Plug-In . SVG Version: 2.1.1 Build 136)  -->
  <defs>
    <style>
      .st0 {
        fill: #fff;
      }
    </style>
  </defs>
  <path class="st0" d="M327.6,585.55l-.13.58c-.52,2.21-2.09,8.95-3.67,15.03-3.08,11.92-3.84,14.02-6.75,14.02h-.18c-.42,0-29.63-.94-50.4-15.77l-70.33-18.21h-17.75l-70.33,18.21c-20.76,14.84-49.98,15.77-50.4,15.77h-.18c-2.92,0-3.68-2.1-6.74-14.02-1.56-6.09-3.15-12.82-3.67-15.03l-.14-.58c-2.88-12.25-3.99-21.75-3.58-30.77.56-12.57,4.48-24.92,8.26-36.86.97-3.08,1.95-6.14,2.83-9.17l13.8-55.16c1.11-5.02,2.45-10.71,4.08-17.2,5.14-20.59,10.93-40.47,12.21-44.82h0c-2.03-8.2-3.53-16.58-4.32-25.25-1.33-14.78-.84-30.13-.36-44.98.14-4.68.3-9.51.4-14.2.25-12.76.55-23.9.9-34.05l.12-3.35,3.21-17.28,4.17-37.8,1.66-25.81,2.33.27c1.31-13.64,9.53-61.17,9.86-61.85.66-1.39,2.07-2.26,3.59-2.26h162.25c1.54,0,2.93.88,3.59,2.26.38.8,9.41,19.94,12.21,61.57l1.65,25.82,4.18,37.8,3.22,17.28.1,3.35c.36,10.19.67,21.34.91,34.05.09,4.69.25,9.52.4,14.22.49,14.84.98,30.19-.35,44.96-.39,4.33-.96,8.6-1.7,12.8-.72,4.2-1.6,8.35-2.62,12.46,1.3,4.38,7.06,24.24,12.2,44.81.81,3.24,1.56,6.29,2.23,9.14.68,2.86,1.3,5.54,1.85,8.06l13.79,55.16c.9,3.03,1.87,6.09,2.84,9.17,3.78,11.94,7.69,24.29,8.26,36.86.41,9.02-.69,18.52-3.58,30.77h.04Z"/>
  <g id="g24">
    <g id="g30">
      <path id="path32" d="M287.69,365.73c-.79,8.7-2.32,17.13-4.43,25.4-.08.33-.18.65-.25.98-.6,2.29-1.23,4.57-1.9,6.84-3.95,13.47-9.21,26.58-14.71,39.79-11.32,27.23-24.53,55.56-44.18,78.43-4.86,5.65-23.99,7.57-34.96,7.44-10.93.12-30.03-1.77-34.89-7.44-19.67-22.87-32.86-51.2-44.18-78.43-5.5-13.21-10.75-26.32-14.71-39.79-.68-2.28-1.31-4.56-1.9-6.84-.08-.33-.18-.67-.25-1-.03-.18-.08-.33-.13-.51-2.03-8.09-3.53-16.36-4.29-24.87-1.31-14.37-.81-29.52-.33-44.16.15-4.7.31-9.55.4-14.28.22-11.34.47-21.38.79-30.6l16.7.73,8.65.38,74.2,3.26,74.2-3.26,8.65-.38,16.69-.73c.31,9.25.57,19.3.8,30.6.09,4.73.24,9.59.4,14.29.46,14.64.96,29.78-.33,44.15M294.67,321.37c-.15-4.69-.31-9.52-.4-14.22-.24-12.71-.55-23.86-.91-34.05l-.11-3.35-24.83,1.09-81.14,3.56-81.14-3.56-24.83-1.09-.12,3.35c-.36,10.15-.65,21.28-.9,34.05-.09,4.69-.25,9.52-.4,14.2-.47,14.84-.97,30.19.36,44.98.79,8.67,2.29,17.05,4.32,25.24.56,2.28,1.16,4.54,1.8,6.8,0,.02,0,.03.02.04.03.09.04.19.08.28,0,.02,0,.03.02.04.47,1.68.97,3.34,1.49,5.01,3.92,12.72,8.87,25.1,14.06,37.57,11.54,27.74,25.02,56.65,45.29,80.22,8.46,9.85,36.81,9.79,39.93,9.75h.89c5.79,0,31.19-.54,39.12-9.75,20.27-23.58,33.74-52.49,45.29-80.22,5.19-12.45,10.13-24.81,14.07-37.52.52-1.7,1.03-3.42,1.52-5.14v-.02c.67-2.32,1.3-4.68,1.87-7.04,2.03-8.21,3.53-16.59,4.32-25.26,1.33-14.77.84-30.12.34-44.96"/>
    </g>
    <g id="g34">
      <path id="path36" d="M120.95,496.43c.13,1.82-1.25,3.42-3.08,3.56-3.45.24-9.46.57-16.24.57-14.47,0-32.48-1.54-36.87-8.78-1.33-2.17-4.43-7.26,7.6-55.4,5.14-20.61,10.94-40.49,12.21-44.83.56,2.28,1.16,4.54,1.8,6.8,0,.02,0,.03.02.04.03.09.04.19.08.29,0,.02,0,.03.02.04.47,1.68.97,3.34,1.49,5.01-11.22,39.26-20.32,79.27-17.52,84.62,2.98,4.92,26.69,6.44,46.95,4.99,1.82-.12,3.42,1.25,3.56,3.08"/>
    </g>
    <g id="g38">
      <path id="path40" d="M309.83,491.78c-4.4,7.24-22.41,8.78-36.87,8.78-6.8,0-12.79-.33-16.26-.57-1.83-.13-3.21-1.73-3.08-3.56.13-1.83,1.73-3.21,3.56-3.08,20.26,1.44,43.98-.08,46.95-4.99,2.8-5.34-6.31-45.34-17.51-84.57.52-1.7,1.03-3.42,1.52-5.14v-.02c.67-2.32,1.3-4.68,1.86-7.04,1.3,4.35,7.06,24.23,12.21,44.81,12.03,48.13,8.94,53.21,7.62,55.4"/>
    </g>
    <g id="g42">
      <path id="path44" d="M118.32,589.88c4.52-5.59,7.9-12.39,9.35-20.71.69-3.93.72-7.65.23-11.17l39.97,19.05-49.56,12.83ZM55.49,592.66c6.96,1.68,13,2.4,18.24,2.4,13.14,0,21.26-4.42,26.14-9.02,9.59-9.02,11.66-23.04,9.53-32.25-3.08-13.39-39.75-24.52-53.19-28.18.58-1.9,1.19-3.79,1.78-5.68.66-2.07,1.31-4.15,1.95-6.21,13.46,3.72,67.06,20.76,61.19,54.3-5.98,34.22-51.06,39.6-61.41,40.38-.64-1.94-1.9-6.25-4.21-15.76M53.58,584.63l-.14-.59c-2.34-9.97-3.45-17.94-3.47-25.29,5.68,4.01,16.12,10.18,26.59,10.18.89,0,1.78-.04,2.66-.14,1.82-.19,3.16-1.83,2.96-3.67s-1.82-3.14-3.67-2.96c-11.96,1.27-25.68-9.45-28.15-11.47.69-6.22,2.16-12.49,3.93-18.7,20.14,5.46,46.86,15.7,48.61,23.28,1.43,6.19.57,18.19-7.61,25.9-8.41,7.92-22.77,9.34-41.56,4.14-.06-.23-.11-.45-.17-.69M179.01,574.97l-53.41-25.46c-12.46-29.97-64.52-42.46-67.15-43.06-1.72-.4-3.45.61-3.95,2.3-.9,3.03-1.87,6.09-2.84,9.17-3.78,11.95-7.69,24.29-8.26,36.87-.41,9.02.69,18.52,3.58,30.77l.13.58c.52,2.21,2.09,8.95,3.67,15.03,3.08,11.92,3.84,14.02,6.74,14.02h.18c.43,0,29.64-.94,50.4-15.77l70.33-18.21c1.35-.35,2.34-1.51,2.48-2.91s-.62-2.72-1.89-3.33"/>
    </g>
    <g id="g46">
      <path id="path48" d="M206.68,577.05l39.97-19.05c-.49,3.52-.46,7.23.23,11.17,1.45,8.32,4.83,15.13,9.35,20.71l-49.56-12.83ZM314.85,608.41c-10.35-.79-55.42-6.16-61.41-40.38-5.87-33.53,47.73-50.57,61.19-54.3.63,2.06,1.29,4.12,1.95,6.21.59,1.88,1.19,3.77,1.78,5.68-13.44,3.66-50.1,14.78-53.19,28.18-2.12,9.21-.05,23.22,9.53,32.25,4.88,4.6,12.99,9.02,26.14,9.02,5.24,0,11.29-.72,18.24-2.4-2.32,9.51-3.58,13.82-4.21,15.76M320.82,585.31c-18.8,5.2-33.15,3.79-41.56-4.14-8.19-7.72-9.04-19.72-7.61-25.9,1.75-7.58,28.47-17.81,48.61-23.28,1.77,6.21,3.25,12.48,3.93,18.7-2.46,2.01-16.18,12.74-28.15,11.47-1.83-.19-3.46,1.14-3.67,2.96-.19,1.82,1.14,3.47,2.96,3.67.89.09,1.78.14,2.66.14,10.48,0,20.92-6.17,26.59-10.18-.03,7.35-1.13,15.33-3.47,25.29l-.14.59c-.06.24-.11.46-.17.69M193.67,578.3c.13,1.39,1.13,2.56,2.48,2.91l70.33,18.21c20.76,14.84,49.98,15.77,50.4,15.77h.18c2.92,0,3.68-2.1,6.74-14.02,1.56-6.09,3.15-12.82,3.67-15.03l.14-.58c2.89-12.25,3.99-21.75,3.58-30.77-.57-12.57-4.48-24.92-8.26-36.87-.97-3.08-1.95-6.14-2.84-9.17-.5-1.69-2.23-2.7-3.95-2.3-2.63.61-54.7,13.09-67.15,43.06l-53.41,25.46c-1.26.6-2.01,1.93-1.89,3.33"/>
    </g>
    <g id="g50">
      <path id="path52" d="M228.39,475.53h.02-.02ZM154.17,475.53c6.67,6.97,19.57,18.27,33.11,18.27s26.75-11.28,33.61-18.27h-66.72ZM187.28,500.47c-22.79,0-42.3-25.17-43.12-26.24-.77-1-.9-2.36-.34-3.5.56-1.14,1.72-1.85,2.99-1.85h81.58c1.28,0,2.44.72,3,1.88s.41,2.51-.38,3.51c-.84,1.06-20.96,26.2-43.73,26.2"/>
    </g>
    <g id="g54">
      <path id="path56" d="M200.47,424.39c1.14,4.22,3.96,19.11-13.19,19.11s-14.33-14.89-13.19-19.11c.18-.66-.13-1.35-.73-1.69-29.64-16.45-2.49-26.09,3.32-27.88.62-.19,1.05-.78,1.05-1.43l.07-50.33.02-12.45.06-38.32c0-.31.1-.62.3-.87,2.24-3.09,5.68-4.65,9.11-4.65s6.87,1.55,9.11,4.65c.19.25.3.56.3.87l.06,38.32.02,12.45.07,50.33c0,.66.43,1.23,1.05,1.43,5.81,1.78,32.95,11.42,3.32,27.88-.6.32-.91,1.03-.73,1.69"/>
    </g>
    <g id="g58">
      <path id="path60" d="M117.63,234.21c0,.94-.38,1.77-1,2.39-.61.61-1.47,1-2.4,1h-9.9c-1.86,0-3.38-1.52-3.38-3.38,0-.94.38-1.77,1-2.39.62-.61,1.45-1,2.39-1h9.9c1.86,0,3.4,1.52,3.4,3.38"/>
    </g>
    <g id="g62">
      <path id="path64" d="M161.45,230.82h-9.9c-.94,0-1.79.38-2.4,1-.61.61-1,1.45-1,2.39,0,1.86,1.54,3.38,3.4,3.38h9.9c.94,0,1.79-.38,2.4-1s1-1.45,1-2.39c0-1.86-1.54-3.38-3.4-3.38M156.5,250.63c-9.08,0-16.43-7.35-16.43-16.43s7.35-16.41,16.43-16.41,16.41,7.34,16.41,16.41-7.35,16.43-16.41,16.43M109.29,250.63c-9.08,0-16.43-7.35-16.43-16.43s7.35-16.41,16.43-16.41,16.41,7.34,16.41,16.41-7.35,16.43-16.41,16.43M161.14,214.67h-72.46l-4.18,37.79,76.62,1.31c5.38,0,10.26-2.2,13.82-5.74,3.54-3.55,5.74-8.45,5.74-13.82,0-10.75-8.81-19.54-19.56-19.54"/>
    </g>
    <g id="g66">
      <path id="path68" d="M117.63,234.21c0,.94-.38,1.77-1,2.39-.61.61-1.47,1-2.4,1h-9.9c-1.86,0-3.38-1.52-3.38-3.38,0-.94.38-1.77,1-2.39.62-.61,1.45-1,2.39-1h9.9c1.86,0,3.4,1.52,3.4,3.38"/>
    </g>
    <g id="g70">
      <path id="path72" d="M117.63,234.21c0,.94-.38,1.77-1,2.39-.61.61-1.47,1-2.4,1h-9.9c-1.86,0-3.38-1.52-3.38-3.38,0-.94.38-1.77,1-2.39.62-.61,1.45-1,2.39-1h9.9c1.86,0,3.4,1.52,3.4,3.38"/>
    </g>
    <g id="g74">
      <path id="path76" d="M164.83,234.21c0,.94-.38,1.77-1,2.39s-1.47,1-2.4,1h-9.9c-1.86,0-3.4-1.52-3.4-3.38,0-.94.38-1.77,1-2.39s1.47-1,2.4-1h9.9c1.86,0,3.4,1.52,3.4,3.38"/>
    </g>
    <g id="g78">
      <path id="path80" d="M164.83,234.21c0,.94-.38,1.77-1,2.39s-1.47,1-2.4,1h-9.9c-1.86,0-3.4-1.52-3.4-3.38,0-.94.38-1.77,1-2.39s1.47-1,2.4-1h9.9c1.86,0,3.4,1.52,3.4,3.38"/>
    </g>
    <g id="g82">
      <path id="path84" d="M98.53,186.56c.35-4.58.79-8.84,1.27-12.84,5.91,2.07,16.66,5.21,27.72,5.21,8,0,16.18-1.65,22.78-6.53,10.02-7.42,14.41-20.66,13.06-39.4h13.44c.34,27.01-6.31,45.22-19.79,54.16-19.89,13.19-49.71,2.91-58.47-.6M108.82,132.99h46.52c1.27,16.12-2.01,27.2-9.79,32.97-13.39,9.92-36.95,2.48-44.66-.37.74-4.87,1.56-9.2,2.38-13.02h37.02c1.83,0,3.33-1.49,3.33-3.33s-1.49-3.33-3.33-3.33h-35.46c1.59-6.24,3.08-10.54,3.99-12.91M161.39,193.84c16.61-10.99,24.44-32.85,23.29-64.97-.07-2.16-1.84-3.85-3.99-3.85h-74.54c-1.54,0-2.94.88-3.59,2.26-.38.8-9.4,19.94-12.21,61.58-.11,1.65.8,3.19,2.3,3.89,1.14.53,19.56,8.98,39.76,8.98,9.84,0,20.09-2,28.98-7.89"/>
    </g>
    <g id="g86">
      <path id="path88" d="M256.94,234.21c0,.94.38,1.77,1,2.39s1.47,1,2.4,1h9.9c1.87,0,3.38-1.52,3.38-3.38,0-.94-.38-1.77-1-2.39s-1.45-1-2.39-1h-9.9c-1.86,0-3.4,1.52-3.4,3.38"/>
    </g>
    <g id="g90">
      <path id="path92" d="M209.72,234.21c0,.94.38,1.77,1,2.39s1.47,1,2.4,1h9.9c1.86,0,3.4-1.52,3.4-3.38,0-.94-.38-1.77-1-2.39s-1.47-1-2.4-1h-9.9c-1.86,0-3.4,1.52-3.4,3.38M201.66,234.21c0-9.08,7.35-16.41,16.41-16.41s16.43,7.34,16.43,16.41-7.35,16.43-16.43,16.43-16.41-7.35-16.41-16.43M248.85,234.21c0-9.08,7.35-16.41,16.41-16.41s16.43,7.34,16.43,16.41-7.35,16.43-16.43,16.43-16.41-7.35-16.41-16.43M193.86,234.21c0,5.37,2.2,10.27,5.74,13.82,3.56,3.54,8.43,5.74,13.82,5.74l76.62-1.31-4.18-37.79h-72.46c-10.75,0-19.56,8.79-19.56,19.54"/>
    </g>
    <g id="g94">
      <path id="path96" d="M256.94,234.21c0,.94.38,1.77,1,2.39s1.47,1,2.4,1h9.9c1.87,0,3.38-1.52,3.38-3.38,0-.94-.38-1.77-1-2.39s-1.45-1-2.39-1h-9.9c-1.86,0-3.4,1.52-3.4,3.38"/>
    </g>
    <g id="g98">
      <path id="path100" d="M256.94,234.21c0,.94.38,1.77,1,2.39s1.47,1,2.4,1h9.9c1.87,0,3.38-1.52,3.38-3.38,0-.94-.38-1.77-1-2.39s-1.45-1-2.39-1h-9.9c-1.86,0-3.4,1.52-3.4,3.38"/>
    </g>
    <g id="g102">
      <path id="path104" d="M209.72,234.21c0,.94.38,1.77,1,2.39s1.47,1,2.4,1h9.9c1.86,0,3.4-1.52,3.4-3.38,0-.94-.38-1.77-1-2.39s-1.47-1-2.4-1h-9.9c-1.86,0-3.4,1.52-3.4,3.38"/>
    </g>
    <g id="g106">
      <path id="path108" d="M209.72,234.21c0,.94.38,1.77,1,2.39s1.47,1,2.4,1h9.9c1.86,0,3.4-1.52,3.4-3.38,0-.94-.38-1.77-1-2.39s-1.47-1-2.4-1h-9.9c-1.86,0-3.4,1.52-3.4,3.38"/>
    </g>
    <g id="g110">
      <path id="path112" d="M217.57,187.15c-13.48-8.94-20.14-27.15-19.79-54.16h13.44c-1.35,18.73,3.03,31.98,13.06,39.4,6.6,4.88,14.76,6.53,22.78,6.53,11.06,0,21.81-3.14,27.72-5.21.48,4,.92,8.25,1.27,12.84-8.76,3.51-38.58,13.78-58.47.6M269.73,145.91h-35.46c-1.83,0-3.33,1.49-3.33,3.33s1.49,3.33,3.33,3.33h37.02c.82,3.83,1.64,8.15,2.38,13.02-7.71,2.85-31.27,10.29-44.66.37-7.78-5.76-11.06-16.85-9.79-32.96h46.52c.91,2.37,2.4,6.67,3.99,12.91M242.16,201.71c20.21,0,38.63-8.45,39.76-8.98,1.49-.7,2.41-2.24,2.3-3.89-2.8-41.64-11.82-60.8-12.21-61.58-.67-1.39-2.07-2.26-3.59-2.26h-74.54c-2.16,0-3.92,1.7-3.99,3.85-1.14,32.12,6.7,53.98,23.29,64.97,8.89,5.88,19.14,7.89,28.98,7.89"/>
    </g>
    <g id="g114">
      <path id="path116" d="M173.83,359.66c-7.31,2.07-13.99,2.95-20.1,2.95-3.22,0-6.28-.25-9.15-.68-.04.03-.06.06-.09.08l-51.02,36.96c-.68-2.28-1.31-4.56-1.9-6.84l44.38-32.13c-17.26-5.29-26.29-16.69-26.42-16.88-1.12-1.45-.85-3.54.6-4.66,1.46-1.12,3.56-.85,4.68.6.8,1.03,19.9,24.89,57.2,14.22,1.77-.51,3.6.52,4.11,2.28.51,1.77-.52,3.62-2.28,4.13"/>
    </g>
    <g id="g118">
      <path id="path120" d="M175.99,320.98c-.72,1.7-2.66,2.49-4.35,1.79-.3-.12-29.35-11.87-54.89,3.68-.54.33-1.14.49-1.73.49-1.12,0-2.21-.57-2.83-1.59-.96-1.56-.46-3.62,1.1-4.57,6.12-3.74,12.37-6.08,18.39-7.45l-27.24-35.9,8.65.38,26.02,34.27c18.85-2.07,34.19,4.16,35.09,4.54,1.7.71,2.5,2.66,1.8,4.35"/>
    </g>
    <g id="g122">
      <path id="path124" d="M145.52,343.48c-8.58,0-16.25-3.87-20.54-6.58,4.31-2.7,11.97-6.58,20.54-6.58s16.25,3.87,20.54,6.58c-4.31,2.7-11.97,6.58-20.54,6.58M117.05,334.34c-.75.63-1.19,1.56-1.19,2.56s.44,1.92,1.19,2.55c.52.44,12.89,10.69,28.46,10.69s27.94-10.25,28.46-10.69c.75-.63,1.19-1.56,1.19-2.55s-.44-1.92-1.19-2.56c-.52-.44-12.89-10.69-28.46-10.69s-27.94,10.25-28.46,10.69"/>
    </g>
    <g id="g126">
      <path id="path128" d="M283.01,392.11c-.6,2.29-1.23,4.57-1.9,6.84l-51.03-36.96-.08-.08c-2.89.43-5.93.68-9.15.68-6.1,0-12.8-.87-20.1-2.95-1.77-.51-2.8-2.35-2.29-4.13.51-1.76,2.34-2.79,4.11-2.28,37.31,10.67,56.41-13.19,57.21-14.22,1.12-1.45,3.21-1.72,4.66-.6s1.73,3.21.61,4.66c-.15.19-9.18,11.59-26.41,16.88l44.38,32.13v.03Z"/>
    </g>
    <g id="g130">
      <path id="path132" d="M262.39,325.34c-.63,1.03-1.72,1.59-2.85,1.59-.58,0-1.19-.16-1.73-.49-25.53-15.56-54.57-3.8-54.87-3.68-1.7.71-3.65-.09-4.35-1.79s.09-3.65,1.79-4.35c.92-.38,16.26-6.62,35.09-4.54l26.03-34.27,8.65-.38-27.26,35.9c6.04,1.37,12.28,3.7,18.4,7.45,1.56.94,2.07,3,1.1,4.57"/>
    </g>
    <g id="g134">
      <path id="path136" d="M208.51,336.89c4.3-2.7,11.97-6.58,20.54-6.58s16.25,3.87,20.54,6.58c-4.31,2.7-11.97,6.58-20.54,6.58s-16.25-3.87-20.54-6.58M229.06,323.65c-15.58,0-27.94,10.25-28.46,10.69-.75.63-1.19,1.56-1.19,2.55s.44,1.92,1.19,2.55c.52.44,12.89,10.69,28.46,10.69s27.94-10.25,28.46-10.69c.75-.63,1.19-1.56,1.19-2.55s-.44-1.92-1.19-2.55c-.52-.44-12.89-10.69-28.46-10.69"/>
    </g>
  </g>
</svg>